<svg width="32" height="27" xmlns="http://www.w3.org/2000/svg" xmlns:xlink="http://www.w3.org/1999/xlink" xml:space="preserve" overflow="hidden"><defs><clipPath id="clip0"><rect x="1006" y="480" width="32" height="27"/></clipPath></defs><g clip-path="url(#clip0)" transform="translate(-1006 -480)"><path d="M18.359 22.1892C18.359 22.5866 18.0368 22.9091 17.639 22.9091L14.0393 22.9091C13.6418 22.9091 13.3193 22.5866 13.3193 22.1892L13.3193 19.6599 0 16.634 0 28.6915C0 29.4867 0.644745 30.1314 1.43991 30.1314L30.2383 30.1314C31.0335 30.1314 31.6782 29.4867 31.6782 28.6915L31.6782 16.6462 18.359 19.6617 18.359 22.1892Z" fill="#FFFFFF" transform="matrix(1.01016 0 0 1 1006 479.047)"/><path d="M30.2383 8.53263 1.43991 8.53263C0.644745 8.53263 0 9.17732 0 9.97254L0 14.7887 13.3193 17.8144 13.3193 16.4295C13.3193 16.0321 13.6418 15.7096 14.0392 15.7096L17.639 15.7096C18.0368 15.7096 18.3589 16.0321 18.3589 16.4295L18.3589 17.8162 31.6782 14.8006 31.6782 9.97254C31.6782 9.17732 31.0335 8.53263 30.2383 8.53263Z" fill="#FFFFFF" transform="matrix(1.01016 0 0 1 1006 479.047)"/><path d="M10.2832 5.19057C10.2832 4.11496 11.1583 3.23983 12.2336 3.23983L19.4443 3.23983C20.5199 3.23983 21.3951 4.11491 21.3951 5.19057L21.3951 7.09235 23.0881 7.09235 23.0881 5.19057C23.0881 3.18118 21.4537 1.54685 19.4443 1.54685L12.2335 1.54685C10.2245 1.54685 8.58983 3.18118 8.58983 5.19057L8.58983 7.09235 10.2832 7.09235 10.2832 5.19057 10.2832 5.19057Z" fill="#FFFFFF" transform="matrix(1.01016 0 0 1 1006 479.047)"/></g></svg>